<svg width="33" height="33" viewBox="0 0 33 33" fill="none" xmlns="http://www.w3.org/2000/svg">
<path d="M28.1462 10.3125L29.15 9.30875C29.418 9.04072 29.5686 8.67719 29.5686 8.29813C29.5686 7.91907 29.418 7.55554 29.15 7.2875C28.882 7.01947 28.5184 6.86889 28.1394 6.86889C27.7603 6.86889 27.3968 7.01947 27.1287 7.2875L26.125 8.25L25.1213 7.24625C24.8477 6.97822 24.479 6.82981 24.096 6.83368C23.7131 6.83755 23.3474 6.99337 23.0794 7.26688C22.8113 7.54038 22.6629 7.90916 22.6668 8.29209C22.6707 8.67501 22.8265 9.04072 23.1 9.30875L24.1038 10.3125L23.1 11.3163C22.832 11.5843 22.6814 11.9478 22.6814 12.3269C22.6814 12.7059 22.832 13.0695 23.1 13.3375C23.368 13.6055 23.7316 13.7561 24.1106 13.7561C24.4897 13.7561 24.8532 13.6055 25.1213 13.3375L26.125 12.375L27.1287 13.3788C27.4023 13.6468 27.771 13.7952 28.154 13.7913C28.5369 13.7875 28.9026 13.6316 29.1706 13.3581C29.4387 13.0846 29.5871 12.7158 29.5832 12.3329C29.5793 11.95 29.4235 11.5843 29.15 11.3163L28.1462 10.3125ZM13.75 15.125C14.8378 15.125 15.9012 14.8024 16.8056 14.1981C17.7101 13.5937 18.4151 12.7348 18.8313 11.7298C19.2476 10.7248 19.3565 9.6189 19.1443 8.55201C18.9321 7.48511 18.4083 6.5051 17.6391 5.73591C16.8699 4.96673 15.8899 4.4429 14.823 4.23068C13.7561 4.01846 12.6502 4.12738 11.6452 4.54367C10.6402 4.95995 9.78126 5.6649 9.17692 6.56937C8.57257 7.47384 8.25 8.53721 8.25 9.625C8.25 11.0837 8.82946 12.4826 9.86091 13.5141C10.8924 14.5455 12.2913 15.125 13.75 15.125ZM22 28.875C22.3647 28.875 22.7144 28.7301 22.9723 28.4723C23.2301 28.2144 23.375 27.8647 23.375 27.5C23.375 24.9473 22.3609 22.4991 20.5559 20.6941C18.7509 18.8891 16.3027 17.875 13.75 17.875C11.1973 17.875 8.74913 18.8891 6.9441 20.6941C5.13906 22.4991 4.125 24.9473 4.125 27.5C4.125 27.8647 4.26987 28.2144 4.52773 28.4723C4.78559 28.7301 5.13533 28.875 5.5 28.875H22Z" fill="#FDA700"/>
</svg>
